<svg width="229" height="222" viewBox="0 0 229 222" fill="transparent" xmlns="http://www.w3.org/2000/svg">
<path d="M18.9641 63.2613C25.8967 49.2563 35.6918 37.4191 48.0363 27.5766C64.7641 14.1785 83.9518 6.11368 105.465 3.64219C130.736 0.737114 154.486 5.37657 176.446 18.1242C181.903 21.2895 187.002 24.8883 191.877 28.7906C193.085 29.7445 192.95 30.3082 191.922 31.2621C181.948 40.8879 171.974 50.5137 162.089 60.2262C160.926 61.3535 160.3 61.2668 159.048 60.3563C130.065 38.7199 87.7982 44.5734 66.1953 73.1906C62.3936 78.2203 59.3074 83.6402 57.1606 89.5371C56.9816 90.0574 56.6238 90.5344 56.3555 91.0547C50.5857 86.8055 44.7713 82.5563 39.0463 78.2637C32.3373 73.2774 25.6283 68.291 18.9641 63.2613Z" fill="#E94335"/>
<path d="M56.3555 131.726C58.2787 135.845 59.8889 140.137 62.3041 143.996C72.457 160.126 86.9484 170.489 106.047 174.175C123.266 177.513 139.815 175.259 155.246 166.89C155.783 166.63 156.319 166.37 156.811 166.11C157.08 166.37 157.303 166.673 157.572 166.89C169.111 175.562 180.695 184.234 192.235 192.906C186.689 198.239 180.382 202.532 173.673 206.261C154.217 217.014 133.151 221.35 110.967 219.702C83.3256 217.621 59.4863 207.041 39.8066 187.963C31.1744 179.595 24.0629 170.142 18.9193 159.346C23.7051 155.79 28.4908 152.278 33.2766 148.723C40.9695 143.043 48.6625 137.406 56.3555 131.726Z" fill="#34A853"/>
<path d="M192.279 192.906C180.74 184.234 169.156 175.562 157.616 166.89C157.348 166.673 157.08 166.37 156.856 166.11C160.837 163.118 164.907 160.213 168.172 156.397C173.629 150.067 177.251 142.913 179.13 134.891C179.354 133.894 179.175 133.547 178.146 133.59C177.609 133.634 177.117 133.59 176.58 133.59C158.332 133.59 140.039 133.547 121.79 133.634C119.778 133.634 119.33 133.113 119.375 131.249C119.465 118.675 119.465 106.1 119.375 93.5262C119.375 91.9219 119.822 91.4883 121.477 91.4883C154.933 91.5316 188.388 91.5316 221.888 91.4883C223.32 91.4883 223.901 91.8352 224.259 93.3094C226.987 105.233 226.808 117.2 225.154 129.254C223.812 138.88 221.396 148.202 217.684 157.221C212.183 170.532 204.087 182.153 193.442 192.125C193.04 192.429 192.637 192.646 192.279 192.906Z" fill="#4285F3"/>
<path d="M56.3555 131.726C48.6625 137.406 40.9695 143.043 33.2766 148.723C28.4908 152.235 23.7051 155.79 18.9193 159.346C15.207 152.668 12.7918 145.601 10.8238 138.316C7.0668 124.225 6.48536 109.916 8.54278 95.5641C10.1529 84.2906 13.5074 73.4508 18.9193 63.3047C25.6283 68.291 32.2926 73.3207 39.0016 78.307C44.7713 82.5996 50.541 86.8488 56.3107 91.098C55.3268 95.7375 53.9402 100.29 53.493 105.06C52.6879 113.732 53.5377 122.187 56.0871 130.512C56.266 130.859 56.3107 131.292 56.3555 131.726Z" fill="#FABB06"/>
</svg>
